<?xml version="1.0" encoding="utf-8"?>
<!-- Generator: Adobe Illustrator 16.0.2, SVG Export Plug-In . SVG Version: 6.00 Build 0)  -->
<!DOCTYPE svg PUBLIC "-//W3C//DTD SVG 1.1//EN" "http://www.w3.org/Graphics/SVG/1.1/DTD/svg11.dtd">
<svg version="1.1" id="圖層_1" xmlns="http://www.w3.org/2000/svg" xmlns:xlink="http://www.w3.org/1999/xlink" x="0px" y="0px"
	 width="185.926px" height="26.326px" viewBox="0 0 185.926 26.326" enable-background="new 0 0 185.926 26.326"
	 xml:space="preserve">
<g>
	<g>
		<path fill="#FFFFFF" d="M29.257,21.523c0.132,1.21,0.368,3.086,1.81,3.559c0.975,0.303,1.847,0.303,2.183,0.303
			c0.167,0,0.269,0.034,0.269,0.168c0,0.202-0.302,0.302-0.705,0.302c-0.738,0-4.36-0.1-5.604-0.201
			c-0.771-0.067-0.939-0.167-0.939-0.336c0-0.134,0.067-0.198,0.235-0.235c0.167-0.032,0.201-0.606,0.134-1.211L25.027,6.547h-0.101
			l-8.22,17.461c-0.705,1.479-0.805,1.783-1.107,1.783c-0.235,0-0.403-0.337-1.04-1.549c-0.871-1.645-3.756-7.451-3.926-7.787
			c-0.299-0.603-4.06-8.664-4.426-9.574H6.073L4.731,22.466c-0.034,0.537-0.034,1.141-0.034,1.709c0,0.505,0.368,0.944,0.873,1.044
			c0.57,0.134,1.073,0.17,1.275,0.17c0.132,0,0.268,0.065,0.268,0.168c0,0.234-0.2,0.3-0.602,0.3c-1.241,0-2.852-0.101-3.122-0.101
			c-0.3,0-1.913,0.101-2.818,0.101c-0.335,0-0.57-0.065-0.57-0.3c0-0.103,0.168-0.168,0.335-0.168c0.269,0,0.503,0,1.006-0.103
			c1.107-0.199,1.208-1.514,1.34-2.788L5.1,0.603C5.132,0.235,5.267,0,5.469,0c0.199,0,0.336,0.133,0.503,0.504l10.266,21.122
			l9.864-21.09C26.237,0.235,26.369,0,26.604,0s0.337,0.27,0.403,0.907L29.257,21.523z"/>
		<path fill="#FFFFFF" d="M43.249,4.835c0.367-0.939,0.503-1.107,0.703-1.107c0.302,0,0.403,0.402,0.705,1.04
			c0.537,1.208,5.27,12.996,7.079,17.327c1.076,2.55,1.879,2.922,2.517,3.124c0.437,0.134,0.872,0.17,1.174,0.17
			c0.168,0,0.368,0.065,0.368,0.232c0,0.17-0.337,0.235-0.672,0.235c-0.438,0-2.616,0-4.663-0.065
			c-0.57-0.035-1.04-0.035-1.04-0.201c0-0.135,0.067-0.135,0.201-0.201c0.168-0.067,0.47-0.302,0.269-0.775l-2.651-6.546
			c-0.067-0.134-0.103-0.168-0.27-0.168h-6.81c-0.134,0-0.235,0.066-0.302,0.235l-1.677,4.566c-0.271,0.704-0.438,1.409-0.438,1.912
			c0,0.573,0.505,0.775,1.007,0.775h0.269c0.235,0,0.302,0.101,0.302,0.235c0,0.167-0.167,0.235-0.436,0.235
			c-0.705,0-2.315-0.102-2.652-0.102c-0.3,0-1.778,0.102-2.984,0.102c-0.369,0-0.57-0.068-0.57-0.235
			c0-0.135,0.133-0.235,0.269-0.235c0.201,0,0.637-0.033,0.872-0.067c1.342-0.167,1.913-1.178,2.483-2.62L43.249,4.835z
			 M46.537,16.725c0.134,0,0.134-0.067,0.101-0.201l-2.919-7.825c-0.168-0.437-0.335-0.437-0.503,0l-2.749,7.825
			c-0.036,0.134,0,0.201,0.101,0.201H46.537z"/>
		<path fill="#FFFFFF" d="M59.924,23.171c-2.886-2.484-3.59-5.743-3.59-8.465c0-1.912,0.704-5.237,3.321-7.791
			c1.778-1.71,4.463-3.054,8.992-3.054c1.175,0,2.852,0.102,4.294,0.335c1.107,0.202,2.047,0.404,3.02,0.438
			c0.302,0,0.369,0.133,0.369,0.301c0,0.235-0.067,0.571-0.135,1.611c-0.035,0.943-0.035,2.52-0.066,2.922
			c-0.033,0.437-0.168,0.604-0.336,0.604c-0.201,0-0.234-0.201-0.234-0.604c0-1.107-0.47-2.248-1.241-2.855
			c-1.04-0.873-3.188-1.576-5.805-1.576c-3.789,0-5.603,1.005-6.641,1.983c-2.184,2.013-2.653,4.566-2.653,7.451
			c0,5.477,4.33,10.345,10.636,10.345c2.214,0,3.692-0.172,4.865-1.346c0.638-0.638,1.04-1.845,1.143-2.382
			c0.064-0.302,0.102-0.402,0.3-0.402c0.135,0,0.271,0.199,0.271,0.402s-0.402,2.684-0.704,3.66
			c-0.168,0.537-0.235,0.64-0.738,0.837c-1.21,0.47-3.423,0.638-5.335,0.638C65.227,26.224,62.24,25.184,59.924,23.171z"/>
		<path fill="#FFFFFF" d="M83.445,12.526c0-4.431,0-5.237-0.066-6.148c-0.067-0.973-0.234-1.442-1.208-1.575
			c-0.235-0.035-0.738-0.067-1.006-0.067c-0.102,0-0.235-0.133-0.235-0.235c0-0.167,0.134-0.235,0.469-0.235
			c1.342,0,3.322,0.067,3.49,0.067c0.302,0,2.785-0.067,3.692-0.067c1.877,0,3.957,0.168,5.503,1.241
			c0.737,0.536,2.044,1.916,2.044,3.896c0,2.116-0.871,4.164-3.621,6.515c2.415,3.02,4.462,5.608,6.173,7.385
			c1.575,1.616,2.55,1.881,3.288,1.983c0.57,0.103,0.872,0.103,1.04,0.103c0.167,0,0.269,0.133,0.269,0.232
			c0,0.17-0.168,0.235-0.703,0.235h-1.847c-1.678,0-2.416-0.168-3.152-0.57c-1.274-0.677-2.348-2.051-4.026-4.197
			c-1.24-1.549-2.55-3.392-3.188-4.164c-0.134-0.134-0.201-0.17-0.402-0.17l-3.762-0.065c-0.134,0-0.201,0.065-0.201,0.235v0.672
			c0,2.754,0,4.971,0.135,6.144c0.101,0.837,0.268,1.38,1.174,1.514c0.403,0.067,1.041,0.135,1.31,0.135
			c0.198,0,0.233,0.133,0.233,0.232c0,0.135-0.134,0.235-0.469,0.235c-1.61,0-3.489-0.101-3.623-0.101
			c-0.034,0-2.015,0.101-2.917,0.101c-0.303,0-0.471-0.065-0.471-0.235c0-0.1,0.068-0.232,0.235-0.232
			c0.269,0,0.638-0.067,0.906-0.135c0.569-0.134,0.637-0.677,0.771-1.514c0.169-1.173,0.169-3.423,0.169-6.177v-5.037H83.445z
			 M85.994,14.941c0,0.167,0.067,0.27,0.201,0.367c0.437,0.235,1.947,0.439,3.255,0.439c0.702,0,1.508-0.034,2.213-0.507
			c1.006-0.673,1.779-2.183,1.779-4.366c0-3.555-1.947-5.606-5.099-5.606c-0.872,0-1.813,0.101-2.114,0.167
			c-0.134,0.066-0.235,0.168-0.235,0.335V14.941z"/>
		<path fill="#FFFFFF" d="M114.346,3.861c6.641,0,11.674,4.063,11.674,10.709c0,6.382-4.731,11.653-11.845,11.653
			c-8.083,0-11.541-6.077-11.541-11.218C102.634,10.408,106.193,3.861,114.346,3.861z M115.017,25.052
			c2.65,0,7.985-1.411,7.985-9.674c0-6.847-4.161-10.442-8.825-10.442c-4.932,0-8.486,3.091-8.486,9.301
			C105.69,20.886,109.682,25.052,115.017,25.052z"/>
		<path fill="#FFFFFF" d="M141.153,21.758c1.946-4.498,6.442-16.219,7.18-18.635c0.168-0.508,0.302-0.978,0.302-1.28
			c0-0.268-0.103-0.603-0.438-0.771c-0.402-0.133-0.906-0.133-1.275-0.133c-0.198,0-0.367-0.034-0.367-0.2
			c0-0.202,0.199-0.27,0.738-0.27c1.342,0,2.886,0.101,3.289,0.101c0.201,0,1.643-0.101,2.616-0.101
			c0.368,0,0.569,0.066,0.569,0.235c0,0.167-0.132,0.235-0.402,0.235c-0.234,0-0.972,0-1.61,0.402
			c-0.438,0.301-0.939,0.873-1.846,3.157c-0.368,0.94-2.045,4.97-3.759,9.101c-2.045,4.901-3.555,8.531-4.328,10.173
			c-0.939,2.019-1.073,2.554-1.409,2.554c-0.402,0-0.57-0.47-1.207-2.084l-8.219-20.581c-0.738-1.882-1.241-2.253-2.417-2.586
			c-0.504-0.133-1.074-0.133-1.275-0.133c-0.2,0-0.269-0.102-0.269-0.235c0-0.201,0.336-0.235,0.873-0.235
			c1.609,0,3.522,0.101,3.925,0.101c0.338,0,1.847-0.101,3.122-0.101c0.603,0,0.906,0.066,0.906,0.235
			c0,0.168-0.101,0.233-0.336,0.233c-0.369,0-0.974,0.035-1.274,0.167c-0.37,0.168-0.438,0.437-0.438,0.672
			c0,0.438,0.402,1.479,0.907,2.789L141.153,21.758z"/>
		<path fill="#FFFFFF" d="M160.679,17.562c0,2.754,0,5.001,0.134,6.176c0.102,0.839,0.2,1.382,1.075,1.514
			c0.438,0.066,1.074,0.134,1.342,0.134c0.167,0,0.233,0.135,0.233,0.235c0,0.135-0.132,0.234-0.469,0.234
			c-1.643,0-3.555-0.1-3.69-0.1c-0.168,0-2.014,0.1-2.919,0.1c-0.303,0-0.47-0.067-0.47-0.234c0-0.101,0.067-0.235,0.234-0.235
			c0.271,0,0.638-0.067,0.908-0.134c0.57-0.132,0.671-0.675,0.771-1.514c0.134-1.175,0.167-3.422,0.167-6.176v-5.035
			c0-4.431,0-5.237-0.065-6.148c-0.066-0.973-0.302-1.408-0.939-1.543c-0.335-0.067-0.705-0.102-0.908-0.102
			c-0.132,0-0.234-0.133-0.234-0.235c0-0.168,0.135-0.235,0.47-0.235c0.975,0,2.82,0.067,2.986,0.067
			c0.134,0,2.047-0.067,2.952-0.067c0.335,0,0.47,0.067,0.47,0.235c0,0.102-0.135,0.235-0.234,0.235c-0.201,0-0.402,0-0.738,0.067
			c-0.806,0.168-0.976,0.571-1.04,1.576c-0.035,0.911-0.035,1.714-0.035,6.148L160.679,17.562L160.679,17.562z"/>
		<path fill="#FFFFFF" d="M179.465,24.511c3.123,0,3.928-0.503,4.597-1.311c0.303-0.367,0.506-1.141,0.604-1.543
			c0.067-0.269,0.169-0.437,0.336-0.437c0.168,0,0.235,0.102,0.235,0.638c0,0.905-0.402,2.584-0.604,3.292
			c-0.169,0.704-0.199,0.738-0.872,0.738c-4.933,0-9.93-0.133-15.098-0.133c-0.336,0-0.536-0.035-0.536-0.234
			c0-0.133,0.034-0.338,0.402-0.877c4.43-6.411,8.789-12.757,12.849-19.105h-6.24c-1.511,0-3.255-0.035-4.194,0.47
			c-1.04,0.537-1.577,1.58-1.677,2.252c-0.067,0.437-0.235,0.503-0.403,0.503c-0.134,0-0.168-0.133-0.168-0.368
			c0-0.336,0.437-2.922,0.604-3.794c0.034-0.403,0.102-0.537,0.269-0.537c0.269,0,0.47,0.169,1.242,0.201
			c2.817,0.102,4.228,0.067,5.167,0.067h8.251c0.438,0,0.604,0.067,0.604,0.235c0,0.133-0.035,0.335-0.168,0.503
			c-4.295,6.583-8.589,12.961-13.052,19.442h7.853V24.511z"/>
	</g>
</g>
</svg>
